<?xml version="1.0" encoding="utf-8"?>
<!-- Generator: Adobe Illustrator 27.5.0, SVG Export Plug-In . SVG Version: 6.00 Build 0)  -->
<svg width="477px" height="333px" version="1.1" xmlns="http://www.w3.org/2000/svg" xmlns:xlink="http://www.w3.org/1999/xlink" x="0px" y="0px"
	 viewBox="0 0 750 500" style="enable-background:new 0 0 750 500;" xml:space="preserve">
<g id="BACKGROUND">
	<rect style="fill:#FFFFFF;" width="750" height="500"/>
</g>
<g id="OBJECTS">
	<g>
		<g>
			<path style="fill:#FFDBDB;" d="M696.033,464.245H51.066c-13.239-15.573-28.884-33.85-33.397-53.785
				c-4.514-19.935-0.342-42.81,14.691-56.658c19.251-17.734,49.228-16.131,72.751-27.61c28.241-13.782,44.559-48.347,37.252-78.91
				c-5.304-22.185-21.031-40.391-29.144-61.709c-14.471-38.025-0.945-84.851,31.573-109.303
				c32.518-24.452,81.258-24.447,113.771,0.011c31.366,23.595,45.783,64.654,77.059,88.369
				c26.512,20.102,63.915,24.789,94.567,11.849c35.489-14.982,58.939-49.906,93.087-67.734c24.912-13.005,55.502-15.85,81.505-5.191
				s46.338,35.45,49.246,63.402c4.08,39.225-24.294,76.445-20.153,115.663c2.352,22.273,14.968,42.06,28.532,59.882
				c13.565,17.822,28.637,34.975,37.335,55.614C708.441,418.772,709.585,446.413,696.033,464.245z"/>
			<path style="fill:#FFDBDB;" d="M372.767,153.485c10.521-6.471,14.88-21.317,9.526-32.448
				c-10.155-21.111-39.16-16.615-47.101,3.603C327.141,145.136,354.885,164.482,372.767,153.485z"/>
			<path style="fill:#FFDBDB;" d="M655.891,227.078c2.557,6.112,10.437,9.353,16.554,6.808c6.117-2.545,9.372-10.419,6.84-16.541
				C673.059,202.299,649.607,212.054,655.891,227.078z"/>
			<path style="fill:#FFDBDB;" d="M38.949,299.515c4.996,6.978,14.525,10.057,22.887,8.126c8.362-1.931,15.328-8.413,18.693-16.308
				c3.669-8.609,3.029-19.29-2.852-26.569C57.463,239.742,23.1,277.377,38.949,299.515z"/>
			<path style="fill:#FFFFFF;" d="M175.306,172.186c6.673-0.396,13.359-5.497,13.66-12.175c0.513-11.373-16.108-17.407-24.05-10.075
				C155.575,158.56,163.462,172.888,175.306,172.186z"/>
			<path style="fill:#FFFFFF;" d="M568.112,233.324c0.565,1.172,1.564,2.167,2.805,2.556c1.289,0.404,2.72,0.124,3.915-0.506
				c1.551-0.818,2.794-2.251,3.258-3.941c0.976-3.552-2.158-7.449-5.956-6.834C568.487,225.189,566.645,230.282,568.112,233.324z"/>
		</g>
		<g>
			<g>
				<g>
					
						<ellipse transform="matrix(0.0623 -0.9981 0.9981 0.0623 158.6734 923.1477)" style="fill:#ABD8F9;" cx="570.63" cy="377.129" rx="85.999" ry="56.177"/>
				</g>
				<g>
					<defs>
						
							<ellipse id="SVGID_1_" transform="matrix(0.0623 -0.9981 0.9981 0.0623 158.6734 923.1477)" cx="570.63" cy="377.129" rx="85.999" ry="56.177"/>
					</defs>
					<clipPath id="SVGID_00000086662810811930004560000017688868109432149402_">
						<use xlink:href="#SVGID_1_"  style="overflow:visible;"/>
					</clipPath>
					<g style="clip-path:url(#SVGID_00000086662810811930004560000017688868109432149402_);">
						<g>
							
								<rect x="547.911" y="207.757" transform="matrix(0.3371 0.9415 -0.9415 0.3371 670.3093 -317.7977)" style="fill:#CFE7F9;" width="25.818" height="218.647"/>
						</g>
						<g>
							
								<rect x="563.056" y="233.099" transform="matrix(0.3371 0.9415 -0.9415 0.3371 700.1795 -309.5404)" style="fill:#CFE7F9;" width="13.672" height="218.647"/>
						</g>
					</g>
					<g style="clip-path:url(#SVGID_00000086662810811930004560000017688868109432149402_);">
						<g>
							
								<rect x="564.779" y="292.052" transform="matrix(0.3371 0.9415 -0.9415 0.3371 760.8538 -277.7971)" style="fill:#CFE7F9;" width="25.818" height="218.647"/>
						</g>
						<g>
							
								<rect x="579.924" y="317.394" transform="matrix(0.3371 0.9415 -0.9415 0.3371 790.725 -269.5399)" style="fill:#CFE7F9;" width="13.672" height="218.647"/>
						</g>
					</g>
				</g>
				<g>
					<path style="fill:#1B141C;" d="M567.621,464.233c-0.807,0-1.614-0.025-2.425-0.076c-15.394-0.961-29.26-10.983-39.044-28.22
						c-9.691-17.072-14.231-39.228-12.785-62.385c1.445-23.155,8.707-44.574,20.447-60.309
						c11.852-15.885,26.83-24.111,42.251-23.144c31.575,1.972,54.827,42.616,51.83,90.605l-1.196-0.075l1.196,0.075
						c-1.445,23.156-8.707,44.574-20.447,60.309C596.219,456.063,582.159,464.233,567.621,464.233z M573.649,292.422
						c-13.767,0-27.151,7.83-37.913,22.255c-11.465,15.366-18.56,36.328-19.977,59.025c-1.417,22.697,3.014,44.379,12.478,61.052
						c9.371,16.509,22.55,26.102,37.109,27.011c14.557,0.896,28.829-6.97,40.18-22.185c11.465-15.365,18.56-36.328,19.977-59.024
						c2.914-46.669-19.331-86.173-49.588-88.063C575.159,292.446,574.403,292.422,573.649,292.422z"/>
				</g>
			</g>
			<g>
				<path style="fill:#F28355;" d="M222.448,444.332c-0.121-4.014-1.199-7.93-2.241-11.808c-0.669-2.489-1.331-5.09-0.819-7.616
					c0.695-3.427,3.389-6.041,5.103-9.089c2.818-5.011,2.844-11.482,0.064-16.515c-2.779-5.033-8.268-8.459-14.011-8.743
					l-11.144,37.137l10.276-37.387c-5.017-2.808-11.488-2.82-16.515-0.031c-5.027,2.789-8.442,8.286-8.714,14.029
					c-0.166,3.493,0.729,7.138-0.502,10.412c-0.907,2.413-2.849,4.265-4.738,6.019c-2.943,2.733-5.935,5.479-8.169,8.816
					c-2.234,3.337-3.67,7.383-3.124,11.362c0.69,5.035,3.543,12.439,7.976,14.924c4.329,2.428,9.263,3.493,14.128,4.498
					c4.656,1.732,9.403,3.449,14.36,3.69c5.076,0.247,11.424-4.512,14.683-8.412C221.637,452.536,222.569,448.346,222.448,444.332z"
					/>
				<g>
					<g>
						<g>
							<path style="fill:#B86340;" d="M233.436,334.604l0.473-1.646c0.194-0.675,0.898-1.065,1.573-0.871l2.371,0.681
								c0.675,0.194,1.064,0.898,0.871,1.573l-0.473,1.647c-0.194,0.675-0.898,1.065-1.573,0.871l-2.371-0.682
								C233.632,335.983,233.242,335.279,233.436,334.604z"/>
							
								<line style="fill:none;stroke:#B86340;stroke-width:0.8369;stroke-miterlimit:10;" x1="236.08" y1="334.473" x2="231.785" y2="333.238"/>
						</g>
						<g>
							<path style="fill:#B86340;" d="M232.026,339.509l0.473-1.646c0.194-0.675,0.898-1.065,1.573-0.871l2.371,0.681
								c0.675,0.194,1.064,0.898,0.871,1.573l-0.473,1.647c-0.194,0.675-0.898,1.065-1.573,0.871l-2.371-0.681
								C232.222,340.888,231.832,340.184,232.026,339.509z"/>
							
								<line style="fill:none;stroke:#B86340;stroke-width:0.8369;stroke-miterlimit:10;" x1="234.67" y1="339.378" x2="230.375" y2="338.143"/>
						</g>
						<g>
							<path style="fill:#B86340;" d="M230.616,344.414l0.473-1.647c0.194-0.675,0.898-1.064,1.573-0.871l2.371,0.682
								c0.675,0.194,1.065,0.898,0.871,1.573l-0.473,1.646c-0.194,0.675-0.898,1.065-1.573,0.871l-2.371-0.681
								C230.812,345.793,230.422,345.089,230.616,344.414z"/>
							
								<line style="fill:none;stroke:#B86340;stroke-width:0.8369;stroke-miterlimit:10;" x1="233.26" y1="344.283" x2="228.965" y2="343.048"/>
						</g>
					</g>
					<g>
						<g>
							<path style="fill:#B86340;" d="M218.829,330.406l0.473-1.646c0.194-0.675-0.196-1.379-0.871-1.573l-2.371-0.682
								c-0.675-0.194-1.379,0.196-1.573,0.871l-0.473,1.647c-0.194,0.675,0.196,1.379,0.871,1.573l2.371,0.682
								C217.931,331.471,218.635,331.081,218.829,330.406z"/>
							
								<line style="fill:none;stroke:#B86340;stroke-width:0.8369;stroke-miterlimit:10;" x1="216.659" y1="328.891" x2="220.953" y2="330.125"/>
						</g>
						<g>
							<path style="fill:#B86340;" d="M217.42,335.311l0.473-1.647c0.194-0.675-0.196-1.379-0.871-1.573l-2.371-0.682
								c-0.675-0.194-1.379,0.196-1.573,0.871l-0.473,1.646c-0.194,0.675,0.196,1.379,0.871,1.573l2.371,0.682
								C216.521,336.375,217.226,335.986,217.42,335.311z"/>
							
								<line style="fill:none;stroke:#B86340;stroke-width:0.8369;stroke-miterlimit:10;" x1="215.249" y1="333.796" x2="219.544" y2="335.03"/>
						</g>
						<g>
							<path style="fill:#B86340;" d="M216.01,340.216l0.473-1.647c0.194-0.675-0.196-1.379-0.871-1.573l-2.371-0.681
								c-0.675-0.194-1.379,0.196-1.573,0.871l-0.473,1.647c-0.194,0.675,0.196,1.379,0.871,1.573l2.371,0.681
								C215.112,341.28,215.816,340.891,216.01,340.216z"/>
							
								<line style="fill:none;stroke:#B86340;stroke-width:0.8369;stroke-miterlimit:10;" x1="213.839" y1="338.701" x2="218.134" y2="339.935"/>
						</g>
					</g>
				</g>
				<g>
					<path style="fill:#B86340;" d="M206.902,424.047c-1,3.48-4.632,5.491-8.112,4.49c-3.48-1-5.49-4.632-4.49-8.112
						c1-3.48,4.632-5.49,8.113-4.49C205.892,416.935,207.903,420.567,206.902,424.047z"/>
				</g>
				
					<rect x="181.668" y="442.171" transform="matrix(0.9611 0.2762 -0.2762 0.9611 130.3327 -36.3544)" style="fill:#B86340;" width="25.09" height="4.582"/>
				
					<rect x="208.357" y="344.235" transform="matrix(0.9611 0.2762 -0.2762 0.9611 113.8555 -43.7096)" style="fill:#B86340;" width="7.448" height="76.116"/>
				<path style="fill:#F28355;" d="M227.646,347.167l-10.103-2.904c-0.675-0.194-1.065-0.898-0.871-1.573l4.278-14.884
					c0.194-0.675,0.898-1.065,1.573-0.871l10.103,2.904c0.675,0.194,1.064,0.898,0.871,1.573l-4.278,14.884
					C229.025,346.971,228.321,347.361,227.646,347.167z"/>
			</g>
			<g>
				<rect x="448.735" y="444.748" style="fill:#8F3F1F;" width="25.816" height="19.485"/>
				<rect x="471.054" y="444.748" style="fill:#B24F26;" width="23.75" height="19.485"/>
				<rect x="481.163" y="444.748" style="fill:#D47245;" width="3.532" height="19.485"/>
				<rect x="457.755" y="444.748" style="fill:#D47245;" width="3.532" height="19.485"/>
			</g>
			<g>
				<rect x="264.333" y="411.539" style="fill:#8F3F1F;" width="53.817" height="52.694"/>
				<rect x="310.86" y="411.539" style="fill:#B24F26;" width="49.509" height="52.694"/>
				<rect x="331.933" y="411.539" style="fill:#D47245;" width="7.363" height="52.694"/>
				<rect x="283.135" y="411.539" style="fill:#D47245;" width="7.363" height="52.694"/>
				<polygon style="fill:#8F3F1F;" points="316.82,426.273 366.329,426.273 360.246,411.539 310.737,411.539 				"/>
				<polygon style="fill:#B24F26;" points="304.655,426.273 255.146,426.273 261.228,411.539 310.737,411.539 				"/>
			</g>
			<g>
				<rect x="387.398" y="436.411" style="fill:#8F3F1F;" width="36.862" height="27.822"/>
				<rect x="419.266" y="436.411" style="fill:#B24F26;" width="33.911" height="27.822"/>
				<rect x="433.7" y="436.411" style="fill:#D47245;" width="5.043" height="27.822"/>
				<rect x="400.276" y="436.411" style="fill:#D47245;" width="5.043" height="27.822"/>
			</g>
			<g>
				<g>
					<polyline style="fill:none;stroke:#1B141C;stroke-width:0.8529;stroke-miterlimit:10;" points="233.299,464.263 
						233.299,233.033 544.998,233.033 544.998,464.263 					"/>
					<rect x="213.722" y="458.934" style="fill:#1B141C;" width="39.155" height="5.329"/>
					<rect x="525.42" y="458.934" style="fill:#1B141C;" width="39.155" height="5.329"/>
				</g>
				<g>
					<path style="fill:#3C4C8A;" d="M240.428,242.252h18.618l-2.855,13.708l-13.945,3.506c0,0-5.737-11.156-5.419-11.634
						C237.146,247.355,240.428,242.252,240.428,242.252z"/>
					<g>
						<path style="fill:none;stroke:#1B141C;stroke-width:0.8529;stroke-miterlimit:10;" d="M234.442,247.605l15.873-8.724v-4.304
							c0-1.112,0.442-2.179,1.228-2.965l0,0c0.623-0.623,1.467-0.973,2.348-0.973h0.066c1.79,0,3.249,1.415,3.318,3.188v3.516"/>
						
							<line style="fill:none;stroke:#1B141C;stroke-width:0.8529;stroke-miterlimit:10;" x1="250.315" y1="238.881" x2="263.681" y2="247.605"/>
					</g>
					<path style="fill:#556BC1;" d="M286.631,276.904l-9.074-24.714c-1.562-4.255-5.239-7.382-9.691-8.239l-8.82-1.699
						c-3.096,5.282-9.309,5.691-9.309,5.691s-6.213-0.409-9.309-5.691l-8.82,1.699c-4.451,0.857-8.128,3.984-9.691,8.239
						l-9.074,24.714l15.083,5.062l-1.068,46.947l13.349,1.214c6.34,0.577,12.719,0.577,19.058,0l13.348-1.214l-1.068-46.947
						L286.631,276.904z"/>
				</g>
				<g>
					<path style="fill:#A84B39;" d="M278.462,242.252h18.618l-2.855,13.708l-13.944,3.506c0,0-5.737-11.156-5.418-11.634
						C275.18,247.355,278.462,242.252,278.462,242.252z"/>
					<g>
						<path style="fill:none;stroke:#1B141C;stroke-width:0.8529;stroke-miterlimit:10;" d="M272.475,247.605l15.873-8.724v-4.304
							c0-1.112,0.442-2.179,1.228-2.965l0,0c0.623-0.623,1.467-0.973,2.348-0.973h0.066c1.79,0,3.249,1.415,3.318,3.188v3.516"/>
						
							<line style="fill:none;stroke:#1B141C;stroke-width:0.8529;stroke-miterlimit:10;" x1="288.348" y1="238.881" x2="301.715" y2="247.605"/>
					</g>
					<path style="fill:#DB614A;" d="M324.664,276.904l-9.074-24.714c-1.562-4.255-5.239-7.382-9.691-8.239l-8.82-1.699
						c-3.096,5.282-9.309,5.691-9.309,5.691s-6.213-0.409-9.309-5.691l-8.82,1.699c-4.451,0.857-8.128,3.984-9.691,8.239
						l-9.074,24.714l15.083,5.062l-1.068,46.947l13.348,1.214c6.34,0.577,12.719,0.577,19.059,0l13.348-1.214l-1.068-46.947
						L324.664,276.904z"/>
				</g>
				<g>
					<g>
						<path style="fill:none;stroke:#1B141C;stroke-width:0.8529;stroke-miterlimit:10;" d="M300.859,247.605l15.873-8.724v-4.304
							c0-1.112,0.442-2.179,1.228-2.965l0,0c0.623-0.623,1.467-0.973,2.348-0.973h0.066c1.79,0,3.249,1.415,3.318,3.188v3.516"/>
						
							<line style="fill:none;stroke:#1B141C;stroke-width:0.8529;stroke-miterlimit:10;" x1="316.732" y1="238.881" x2="330.687" y2="247.497"/>
					</g>
					<g>
						<path style="fill:#B44E28;" d="M335.308,259.369l-4.141-13.934c-5.089,1.781-15.394,2.163-15.394,2.163
							s-10.305-0.382-15.394-2.163l-4.141,13.934c-3.497,11.766-5.249,23.981-5.202,36.256l0.31,80.594c0,0,9.414,3.435,18.065,0
							l5.216-89.691l1.145-0.763l1.145,0.763l5.216,89.691c8.651,3.435,18.065,0,18.065,0l0.31-80.594
							C340.557,283.351,338.805,271.135,335.308,259.369z"/>
						<polygon style="fill:#6B2E17;" points="290.15,374.011 310.737,374.685 309.989,378.503 290.599,377.305 						"/>
						<polygon style="fill:#6B2E17;" points="341.396,374.011 320.809,374.685 321.557,378.503 340.947,377.305 						"/>
						<g>
							<g>
								<path style="fill:none;stroke:#6B2E17;stroke-width:0.8026;stroke-miterlimit:10;" d="M300.275,248.256
									c0,0,13.041,5.495,30.854,0"/>
								<path style="fill:none;stroke:#6B2E17;stroke-width:0.8026;stroke-miterlimit:10;" d="M298.09,257.45
									c0,0,8.909,1.893,8.791-7.452"/>
								<path style="fill:none;stroke:#6B2E17;stroke-width:0.8026;stroke-miterlimit:10;" d="M333.456,257.45
									c0,0-8.909,1.893-8.791-7.452"/>
								
									<line style="fill:none;stroke:#6B2E17;stroke-width:0.8026;stroke-miterlimit:10;" x1="315.676" y1="250.698" x2="315.702" y2="276.474"/>
								<path style="fill:none;stroke:#6B2E17;stroke-width:0.8026;stroke-miterlimit:10;" d="M318.142,250.698v12.187
									c0,1.674-0.976,3.169-2.44,3.734l0,0"/>
							</g>
						</g>
					</g>
				</g>
				<g>
					<path style="fill:#4F3647;" d="M343.358,242.252h18.618l-2.855,13.708l-13.945,3.506c0,0-5.737-11.156-5.418-11.634
						C340.076,247.355,343.358,242.252,343.358,242.252z"/>
					<g>
						<path style="fill:none;stroke:#1B141C;stroke-width:0.8529;stroke-miterlimit:10;" d="M337.371,247.605l15.873-8.724v-4.304
							c0-1.112,0.442-2.179,1.228-2.965l0,0c0.623-0.623,1.467-0.973,2.348-0.973h0.066c1.79,0,3.249,1.415,3.318,3.188v3.516"/>
						
							<line style="fill:none;stroke:#1B141C;stroke-width:0.8529;stroke-miterlimit:10;" x1="353.244" y1="238.881" x2="366.611" y2="247.605"/>
					</g>
					<path style="fill:#382632;" d="M389.56,276.904l-9.074-24.714c-1.562-4.255-5.239-7.382-9.691-8.239l-8.82-1.699
						c-3.096,5.282-9.309,5.691-9.309,5.691s-6.213-0.409-9.309-5.691l-8.82,1.699c-4.451,0.857-8.128,3.984-9.691,8.239
						l-9.074,24.714l15.083,5.062l-1.068,46.947l13.349,1.214c6.34,0.577,12.719,0.577,19.059,0l13.348-1.214l-1.068-46.947
						L389.56,276.904z"/>
				</g>
				<g>
					<g>
						<path style="fill:none;stroke:#1B141C;stroke-width:0.8529;stroke-miterlimit:10;" d="M373.855,247.605l15.873-8.724v-4.304
							c0-1.112,0.442-2.179,1.228-2.965l0,0c0.623-0.623,1.467-0.973,2.348-0.973h0.067c1.789,0,3.248,1.415,3.318,3.188v3.516"/>
						
							<line style="fill:none;stroke:#1B141C;stroke-width:0.8529;stroke-miterlimit:10;" x1="389.728" y1="238.881" x2="403.683" y2="247.497"/>
					</g>
					<g>
						<path style="fill:#C1AF55;" d="M413.422,274.96c-0.672-5.518-1.954-10.944-3.824-16.178l-4.611-12.912
							c-6.27,2.145-15.839,2.475-15.839,2.475s-9.569-0.33-15.839-2.475l-4.611,12.912c-1.87,5.235-3.152,10.661-3.824,16.178
							l-9.053,74.355c0,0,13.529,5.775,29.697,2.805l3.63-74.738l3.63,74.738c16.169,2.97,29.697-2.805,29.697-2.805L413.422,274.96
							z"/>
						<g>
							<path style="fill:none;stroke:#918440;stroke-width:0.8329;stroke-miterlimit:10;" d="M372.562,249.758
								c0,0,14.045,5.495,33.23,0"/>
							<path style="fill:none;stroke:#918440;stroke-width:0.8329;stroke-miterlimit:10;" d="M370.209,258.952
								c0,0,9.595,1.893,9.468-7.452"/>
							<path style="fill:none;stroke:#918440;stroke-width:0.8329;stroke-miterlimit:10;" d="M408.298,258.952
								c0,0-9.595,1.893-9.468-7.452"/>
							
								<line style="fill:none;stroke:#918440;stroke-width:0.8329;stroke-miterlimit:10;" x1="389.148" y1="252.2" x2="389.177" y2="277.976"/>
							<path style="fill:none;stroke:#918440;stroke-width:0.8329;stroke-miterlimit:10;" d="M391.805,252.2v12.187
								c0,1.674-1.051,3.168-2.627,3.734l0,0"/>
						</g>
					</g>
				</g>
				<g>
					<path style="fill:#FF9029;" d="M418.056,242.252h18.618l-2.856,13.708l-13.944,3.506c0,0-5.737-11.156-5.418-11.634
						C414.774,247.355,418.056,242.252,418.056,242.252z"/>
					<g>
						<path style="fill:none;stroke:#1B141C;stroke-width:0.8529;stroke-miterlimit:10;" d="M412.07,247.605l15.873-8.724v-4.304
							c0-1.112,0.442-2.179,1.228-2.965l0,0c0.623-0.623,1.467-0.973,2.348-0.973h0.066c1.79,0,3.248,1.415,3.318,3.188v3.516"/>
						
							<line style="fill:none;stroke:#1B141C;stroke-width:0.8529;stroke-miterlimit:10;" x1="427.942" y1="238.881" x2="441.309" y2="247.605"/>
					</g>
					<path style="fill:#FFB74A;" d="M464.258,276.904l-9.074-24.714c-1.562-4.255-5.239-7.382-9.691-8.239l-8.82-1.699
						c-3.096,5.282-9.309,5.691-9.309,5.691s-6.213-0.409-9.309-5.691l-8.82,1.699c-4.451,0.857-8.128,3.984-9.691,8.239
						l-9.074,24.714l15.083,5.062l-1.068,46.947l13.348,1.214c6.34,0.577,12.719,0.577,19.059,0l13.348-1.214l-1.068-46.947
						L464.258,276.904z"/>
				</g>
				<g>
					<g>
						<path style="fill:none;stroke:#1B141C;stroke-width:0.8529;stroke-miterlimit:10;" d="M448.195,247.605l15.873-8.724v-4.304
							c0-1.112,0.442-2.179,1.228-2.965l0,0c0.623-0.623,1.467-0.973,2.348-0.973h0.067c1.79,0,3.249,1.415,3.318,3.188v3.516"/>
						
							<line style="fill:none;stroke:#1B141C;stroke-width:0.8529;stroke-miterlimit:10;" x1="464.068" y1="238.881" x2="478.023" y2="247.497"/>
					</g>
					<g>
						<path style="fill:#B44E28;" d="M482.644,259.369l-4.141-13.934c-5.089,1.781-15.394,2.163-15.394,2.163
							s-10.305-0.382-15.394-2.163l-4.141,13.934c-3.497,11.766-5.249,23.981-5.202,36.256l0.31,80.594c0,0,9.414,3.435,18.065,0
							l5.216-89.691l1.145-0.763l1.145,0.763l5.216,89.691c8.651,3.435,18.065,0,18.065,0l0.31-80.594
							C487.893,283.351,486.141,271.135,482.644,259.369z"/>
						<polygon style="fill:#6B2E17;" points="437.486,374.011 458.074,374.685 457.325,378.503 437.935,377.305 						"/>
						<polygon style="fill:#6B2E17;" points="488.732,374.011 468.145,374.685 468.894,378.503 488.283,377.305 						"/>
						<g>
							<g>
								<path style="fill:none;stroke:#6B2E17;stroke-width:0.8026;stroke-miterlimit:10;" d="M447.611,248.256
									c0,0,13.041,5.495,30.855,0"/>
								<path style="fill:none;stroke:#6B2E17;stroke-width:0.8026;stroke-miterlimit:10;" d="M445.426,257.45
									c0,0,8.909,1.893,8.791-7.452"/>
								<path style="fill:none;stroke:#6B2E17;stroke-width:0.8026;stroke-miterlimit:10;" d="M480.793,257.45
									c0,0-8.909,1.893-8.791-7.452"/>
								
									<line style="fill:none;stroke:#6B2E17;stroke-width:0.8026;stroke-miterlimit:10;" x1="463.012" y1="250.698" x2="463.039" y2="276.474"/>
								<path style="fill:none;stroke:#6B2E17;stroke-width:0.8026;stroke-miterlimit:10;" d="M465.478,250.698v12.187
									c0,1.674-0.976,3.169-2.44,3.734l0,0"/>
							</g>
						</g>
					</g>
				</g>
				<g>
					<path style="fill:#3C4C8A;" d="M499.661,242.719h20.289l-3.112,13.709l-15.196,3.506c0,0-6.252-11.156-5.905-11.634
						C496.085,247.822,499.661,242.719,499.661,242.719z"/>
					<g>
						<path style="fill:none;stroke:#1B141C;stroke-width:0.8529;stroke-miterlimit:10;" d="M494.397,247.605l15.873-8.724v-4.304
							c0-1.112,0.442-2.179,1.228-2.965l0,0c0.623-0.623,1.468-0.973,2.348-0.973h0.067c1.789,0,3.249,1.415,3.318,3.188v3.516"/>
						
							<line style="fill:none;stroke:#1B141C;stroke-width:0.8529;stroke-miterlimit:10;" x1="510.27" y1="238.881" x2="523.636" y2="247.605"/>
					</g>
					<path style="fill:#556BC1;" d="M541.592,328.432l15.083-2.057l-6.492-49.004l-0.204-0.076l-9.858-24.638
						c-1.703-4.255-5.71-7.382-10.56-8.239l-9.612-1.699c-3.374,5.282-10.144,5.691-10.144,5.691s-6.77-0.409-10.144-5.691
						l-9.612,1.699c-4.851,0.857-8.858,3.984-10.56,8.239l-9.888,24.714l-6.492,49.004l15.083,2.057l7.846-45.999l-1.164,44.999
						l14.547,1.214c6.909,0.577,13.86,0.577,20.769,0l14.546-1.214l-1.163-44.999l0.222-0.068l-0.048,0.068L541.592,328.432z"/>
				</g>
			</g>
			<g>
				<path style="fill:#1B141C;" d="M391.013,385.182h-18.295c-1.91,0-3.458-1.548-3.458-3.458v-71.991
					c0-1.91,1.548-3.458,3.458-3.458h18.295V385.182z"/>
				<g>
					<rect x="414.157" y="395.02" style="fill:#1B141C;" width="54.258" height="4.82"/>
					<rect x="421.217" y="381.087" style="fill:#1B141C;" width="42.11" height="13.933"/>
					<rect x="425.544" y="381.087" style="fill:#2F2930;" width="42.11" height="13.933"/>
					<rect x="421.217" y="395.02" style="fill:#2F2930;" width="54.258" height="4.82"/>
				</g>
				<rect x="375.335" y="306.277" style="fill:#1B141C;" width="138.97" height="78.91"/>
				<g>
					<polygon style="fill:#282229;" points="412.385,306.277 375.335,343.337 375.335,325.417 394.475,306.277 					"/>
					<polygon style="fill:#282229;" points="448.735,306.277 375.335,379.667 375.335,352.567 421.615,306.277 					"/>
				</g>
				<g>
					<polygon style="fill:#282229;" points="514.305,306.277 514.305,309.247 438.365,385.187 420.445,385.187 499.355,306.277 
											"/>
					<polygon style="fill:#282229;" points="514.305,318.477 514.305,345.587 474.695,385.187 447.595,385.187 					"/>
				</g>
				<g>
					<path style="fill:#B3969A;" d="M512.302,308.275v74.907H377.33v-74.907H512.302 M514.302,306.275H375.33v78.907h138.971
						V306.275L514.302,306.275z"/>
				</g>
			</g>
			<g>
				<g>
					<rect x="498.332" y="399.839" style="fill:#B86340;" width="9.403" height="64.394"/>
				</g>
				<g>
					<rect x="343.075" y="399.839" style="fill:#B86340;" width="164.661" height="9.403"/>
				</g>
				<g>
					<rect x="373.888" y="399.839" style="fill:#F28355;" width="164.661" height="9.403"/>
				</g>
				<g>
					<rect x="343.075" y="399.839" style="fill:#B86340;" width="9.403" height="64.394"/>
				</g>
				<g>
					<rect x="373.888" y="399.839" style="fill:#F28355;" width="9.403" height="64.394"/>
				</g>
				<g>
					<rect x="529.146" y="399.839" style="fill:#F28355;" width="9.403" height="64.394"/>
				</g>
			</g>
			<g>
				<g>
					
						<rect x="658.437" y="426.726" transform="matrix(0.8216 -0.5701 0.5701 0.8216 -122.6161 470.6528)" style="fill:#B86340;" width="64.248" height="8.96"/>
				</g>
				<g>
					
						<rect x="686.081" y="399.082" transform="matrix(0.5701 -0.8216 0.8216 0.5701 -57.4035 752.7058)" style="fill:#B86340;" width="8.96" height="64.248"/>
				</g>
				<g>
					<path style="fill:#F28355;" d="M721.623,406.3h-62.125l0,0c0-7.724,6.262-13.986,13.986-13.986h34.152
						C715.361,392.314,721.623,398.576,721.623,406.3L721.623,406.3z"/>
				</g>
				<rect x="659.499" y="406.3" style="fill:#F28355;" width="8.96" height="57.963"/>
				<rect x="712.612" y="406.3" style="fill:#F28355;" width="8.96" height="57.963"/>
			</g>
			<g>
				
					<line style="fill:none;stroke:#382632;stroke-width:2;stroke-miterlimit:10;" x1="311.289" y1="415.614" x2="311.289" y2="451.417"/>
				
					<line style="fill:none;stroke:#382632;stroke-width:0.5;stroke-miterlimit:10;" x1="294.672" y1="419.785" x2="294.672" y2="437.625"/>
				<path style="fill:#FFB74A;" d="M316.54,438.467h-4.981h-0.541h-4.981c0,0-8.216,3.245-8.351,13.653
					c-0.135,10.408,6.196,12.245,6.196,12.245h7.136h0.541h7.137c0,0,6.33-1.838,6.196-12.245S316.54,438.467,316.54,438.467z"/>
				<polygon style="fill:#556BC1;" points="321.609,396.585 312.43,396.585 312.122,396.585 302.943,396.585 282.912,427.876 
					312.122,427.876 312.43,427.876 341.64,427.876 				"/>
				<path style="fill:#FFB74A;" d="M296.859,437.709c-0.046,1.208-1.062,2.15-2.27,2.104c-1.208-0.046-2.149-1.062-2.104-2.27
					c0.046-1.208,1.062-2.15,2.27-2.104C295.963,435.485,296.905,436.501,296.859,437.709z"/>
			</g>
			<g>
				
					<line style="fill:none;stroke:#382632;stroke-width:2.1497;stroke-miterlimit:10;" x1="695.973" y1="329.046" x2="695.973" y2="365.774"/>
				
					<line style="fill:none;stroke:#382632;stroke-width:0.5374;stroke-miterlimit:10;" x1="677.26" y1="333.324" x2="677.26" y2="351.626"/>
				<path style="fill:#382632;" d="M701.887,352.49h-5.61h-0.609h-5.61c0,0-9.253,4.99-9.404,20.994
					c-0.152,16.004,6.977,18.83,6.977,18.83h8.037h0.609h8.037c0,0,7.129-2.826,6.977-18.83
					C711.14,357.48,701.887,352.49,701.887,352.49z"/>
				<polygon style="fill:#DB614A;" points="707.595,309.524 697.259,309.524 696.911,309.524 686.574,309.524 664.017,341.624 
					696.911,341.624 697.259,341.624 730.153,341.624 				"/>
				<path style="fill:#DB614A;" d="M679.723,351.711c-0.052,1.239-1.196,2.205-2.556,2.158c-1.36-0.047-2.421-1.09-2.369-2.328
					c0.052-1.239,1.196-2.205,2.556-2.158S679.775,350.472,679.723,351.711z"/>
			</g>
			<g>
				<g>
					<path style="fill:#918440;" d="M107.943,349.656c-0.524-3.244-2.839-6.273-5.827-7.818c-4.07-2.105-8.994-1.905-13.407-0.671
						c-2.059,0.576-4.046,1.373-5.943,2.35c0.21,2.731-0.806,5.383-2.737,6.671c-1.851,0.617-3.702,0.394-5.27-0.944
						c-1.744,1.669-3.319,3.515-4.687,5.5c-4.449,6.458-6.75,14.301-6.916,22.142c-0.124,5.841,0.939,11.785,3.695,16.936
						c2.561,4.788,10.162,13.863,16.264,11.014c6.511-3.04,11.185-10.14,11.658-17.255c0.239-3.594-0.459-7.176-0.725-10.768
						c-0.266-3.592-0.049-7.394,1.824-10.471c2.266-3.725,6.656-5.946,9.514-9.099C103.361,354.269,104.849,350.784,107.943,349.656
						z"/>
					<g>
						<path style="fill:#C1AF55;" d="M71.83,393.915c0.595-1.784,1.975-2.782,3.869-3.266c0.052-5.235-1.323-10.45-3.553-15.201
							c-3.332-7.1-8.616-13.335-15.302-17.434c-4.274-2.62-9.124-4.33-14.093-4.931c-1.52,3.174-4.893,4.832-8.271,3.481
							c-0.559-0.559-1.458-1.803-1.861-3.102c-3.959,0.838-7.788,2.618-10.299,5.75c-2.867,3.575-3.488,9.164-0.547,12.679
							c3.84,4.59,11.276,3.776,16.193,7.188c2.659,1.845,4.331,4.768,5.524,7.803c1.318-0.087,2.684,0.125,3.744,0.655
							c2.364,2.364,1.319,6.09-0.185,9.411c0.17,0.37,0.346,0.738,0.536,1.099c3.319,6.311,10.471,10.905,17.655,11.043
							c4.141,0.08,6.969-4.195,8.627-8.757C71.965,398.881,71.164,395.914,71.83,393.915z"/>
						<path style="fill:none;stroke:#918440;stroke-width:0.7588;stroke-miterlimit:10;" d="M31.488,364.304
							c9.69,0.665,19.023,5.496,25.161,13.023c6.674,8.184,9.379,18.9,10.661,29.382c1.282,10.483,1.334,21.138,3.571,31.459"/>
					</g>
					<g>
						<path style="fill:#C1AF55;" d="M138.997,359.213c-2.516-3.138-6.354-4.918-10.321-5.754c-0.425,0.941-0.851,1.769-1.276,2.195
							c-2.998,1.799-6.785,0.045-7.984-2.663c-5.265,0.5-10.425,2.254-14.942,5.023c-6.686,4.099-11.97,10.334-15.302,17.434
							c-2.482,5.289-3.921,11.153-3.492,16.979c0.106,1.443,0.418,3.31,0.943,5.268c1.574-0.648,3.354-0.284,4.339,1.685
							c0.626,1.879,0.37,4.184-0.726,6.332c1.537,2.042,3.475,3.424,5.843,3.378c7.184-0.138,14.336-4.732,17.655-11.043
							c1.125-2.139,1.862-4.444,2.591-6.753c-2.799-1.816-2.915-6.358-0.766-9.223c1.57-1.57,3.814-1.112,5.571-0.954
							c0.657-0.763,1.387-1.458,2.223-2.038c4.917-3.412,12.353-2.598,16.194-7.188
							C142.485,368.377,141.864,362.789,138.997,359.213z"/>
						<path style="fill:none;stroke:#918440;stroke-width:0.7588;stroke-miterlimit:10;" d="M129.829,364.304
							c-9.69,0.665-19.023,5.496-25.161,13.023c-6.674,8.184-9.379,18.9-10.661,29.382c-1.282,10.483-1.334,21.138-3.571,31.459"/>
					</g>
					<path style="fill:none;stroke:#C1AF55;stroke-width:0.7588;stroke-miterlimit:10;" d="M97.004,349.404
						c-8.846,4.953-14.266,14.606-16.443,24.508c-2.177,9.901-1.532,20.177-0.875,30.294c0.74,11.399,1.48,22.798,2.221,34.197"/>
				</g>
				<polygon style="fill:#FFB74A;" points="95.746,464.233 64.491,464.233 54.495,418.693 105.742,418.693 				"/>
				<rect x="51.006" y="413.998" style="fill:#FF9029;" width="58.225" height="5.761"/>
				<polygon style="fill:#F2AE47;" points="54.729,419.759 55.51,423.315 103.693,428.024 105.507,419.759 				"/>
			</g>
		</g>
		<g>
			<g>
				<path style="fill:#FF5754;" d="M84.281,417.968l-16.866,28.301c-1.412,2.364-0.91,5.469,1.292,7.253
					c2.415,1.956,5.958,1.584,7.914-0.831l18.865-23.293C91.756,425.583,88.087,421.706,84.281,417.968z"/>
			</g>
			<g>
				<g>
					<path style="fill:#1B141C;" d="M86.821,448.648l1.149-1.949c1.053-1.786,0.458-4.087-1.328-5.14l0,0
						c-1.786-1.053-4.087-0.458-5.14,1.328l-2.772,4.703l3.571,2.105L86.821,448.648z"/>
				</g>
				<g>
					<path style="fill:#1B141C;" d="M63.734,451.104l22.572,13.132h16.196c-0.011-0.459-0.056-0.917-0.145-1.365
						c-0.056-0.38-0.157-0.749-0.28-1.119c-0.973-2.964-3.613-5.212-6.857-5.593l-2.08-0.246l-2.573-3.311l-0.291-0.38l-0.537-0.682
						l-0.291-0.369l-0.537-0.693l-0.291-0.369l-2.539-3.277c-11.062,1.846-14.295-8.009-14.295-8.009
						c-4.25,1.51-6.398,6.331-7.36,9.474c-0.134,0.403-0.235,0.783-0.325,1.118C63.835,450.444,63.734,451.104,63.734,451.104z"/>
				</g>
				<g>
					<g>
						<path style="fill:#FFFFFF;" d="M64.103,449.415l23.221,13.456h15.033c-0.056-0.38-0.157-0.749-0.28-1.119H87.626
							l-23.199-13.456C64.293,448.699,64.193,449.079,64.103,449.415z"/>
					</g>
				</g>
				<g>
					<path style="fill:#FFFFFF;" d="M82.887,448.181c0-0.732,0.415-1.374,1.081-1.676c0.668-0.305,1.424-0.19,1.974,0.294
						l1.409,1.239c0.054,0.048,0.081,0.119,0.072,0.191c-0.134,1.021-1.012,1.791-2.042,1.791h-0.654
						C83.713,450.02,82.887,449.195,82.887,448.181z M85.656,447.124c-0.421-0.369-0.999-0.453-1.509-0.225
						c-0.51,0.23-0.826,0.722-0.826,1.281c0,0.776,0.631,1.407,1.406,1.407h0.654c0.775,0,1.442-0.554,1.594-1.304L85.656,447.124z"
						/>
				</g>
				<g>
					<g>
						<polygon style="fill:#FFFFFF;" points="88.197,453.889 88.487,454.258 90.568,452.603 90.277,452.222 						"/>
					</g>
					<g>
						<polygon style="fill:#FFFFFF;" points="87.358,452.837 87.648,453.207 89.74,451.54 89.449,451.171 						"/>
					</g>
					<g>
						<polygon style="fill:#FFFFFF;" points="86.519,451.786 86.81,452.155 88.912,450.477 88.622,450.108 						"/>
					</g>
				</g>
			</g>
			<path style="fill:#324073;" d="M119.572,400.331l2.869-3.596c1.194-1.496,2.04-3.239,2.478-5.102l1.809-7.691
				C121.29,387.127,118.31,394.075,119.572,400.331z"/>
			<path style="fill:#495CA6;" d="M127.505,333.316l-17.828,7.558l-7.026,44.921l-22.757,36.983l14.158,9.543l25.521-31.99
				c-1.263-6.256,1.717-13.204,7.156-16.389l10.507-44.673L127.505,333.316z"/>
			<polygon style="fill:#324073;" points="79.519,421.229 95.697,431.674 93.105,434.909 78.327,424.294 			"/>
			<polyline style="fill:none;stroke:#324073;stroke-width:0.8329;stroke-miterlimit:10;" points="81.424,423.986 105.664,387.57 
				109.61,353.973 			"/>
			<path style="fill:#1B141C;" d="M133.23,210.276c-1.688,3.524,0.104,7.642,1.797,11.164c1.693,3.522,3.283,7.797,1.281,11.153
				c-1.222,2.048-3.596,3.31-4.477,5.526c-0.738,1.856-0.247,3.984,0.598,5.794s2.029,3.454,2.767,5.31
				c1.42,3.572,1.001,7.821-1.089,11.047c-2.09,3.226-5.797,5.344-9.638,5.508c-7.27,4.766-15.341,7.45-23.07,11.428
				c-3.852-1.186-7.744-2.388-11.225-4.419c-3.482-2.031-6.568-4.997-7.966-8.777c-1.398-3.781-0.819-8.425,2.054-11.252
				c1.908-1.877,4.68-2.902,6.044-5.204c1.659-2.8,0.578-6.489-1.355-9.107s-4.612-4.602-6.628-7.157
				c-2.017-2.555-3.329-6.112-1.947-9.058c2.259-4.817,10.005-5.016,12.064-9.922c1.011-2.409,0.259-5.143,0.136-7.753
				c-0.129-2.746,0.501-5.577,2.079-7.828c1.579-2.251,4.165-3.852,6.913-3.934c3.404-0.102,6.49,2.007,9.865,2.459
				c2.763,0.37,5.262,0.521,7.929-0.289s5.192-2.052,7.877-2.802c2.685-0.75,5.665-0.97,8.178,0.236
				c3.407,1.635,5.235,5.8,4.553,9.517C139.289,205.634,136.751,208.903,133.23,210.276z"/>
			<rect x="107.67" y="234.145" style="fill:#FF5754;" width="15.661" height="21.115"/>
			<path style="fill:#DA2727;" d="M123.331,234.145v6.531c-3.567,0.148-11.748-0.227-15.078-6.502l2.292-0.03H123.331z"/>
			<path style="fill:#FF5754;" d="M131.233,219.182c0-10.347-6.921-18.735-15.457-18.735c-8.537,0-15.457,8.388-15.457,18.735
				c0,3.235,0.684,6.48,2.089,9.4c1.263,2.626,3.117,4.995,5.492,6.702c1.476,1.06,3.206,1.873,4.987,2.252
				c1.183,0.251,2.46,0.197,3.664,0.214c1.322,0.018,2.644,0.001,3.965-0.051c1.536-0.061,3.16-0.137,4.627-0.639
				c1.299-0.444,2.493-1.233,3.426-2.237c1.607-1.728,2.492-4.046,2.492-6.402v-6.583
				C131.162,220.969,131.233,220.087,131.233,219.182z"/>
			<g>
				<path style="fill:#FF5754;" d="M103.759,219.052c-0.554-0.987-1.894-1.554-3.159-1.461s-2.416,0.781-3.11,1.699
					c-0.694,0.919-0.962,2.044-0.92,3.141c0.043,1.132,0.417,2.275,1.217,3.172c0.8,0.897,2.055,1.518,3.366,1.514
					s2.626-0.7,3.082-1.761L103.759,219.052z"/>
				<g>
					
						<path style="fill:none;stroke:#DA2727;stroke-width:0.6772;stroke-linecap:round;stroke-linejoin:round;stroke-miterlimit:10;" d="
						M100.765,225.14c1.002-1.863,0.856-4.1-0.381-5.868"/>
					
						<path style="fill:none;stroke:#DA2727;stroke-width:0.6772;stroke-linecap:round;stroke-linejoin:round;stroke-miterlimit:10;" d="
						M101.135,221.826c-1.053,0.463-1.871,1.263-2.233,2.183"/>
				</g>
			</g>
			<g>
				<path style="fill:#FF5754;" d="M164.013,298.479c-0.862-1.492-1.727-2.982-2.592-4.472l-6.204,0.936L164.013,298.479z"/>
				<path style="fill:#DA2727;" d="M149.422,306.345c0.259,0.359,0.517,0.72,0.777,1.079l0.629,0.875
					c1.807,2.495,5.078,3.663,8.167,2.661l4.532-1.469C159.592,306.637,154.336,305.521,149.422,306.345z"/>
				<path style="fill:#FF5754;" d="M207.446,291.442c-0.357-2.364-2.563-3.992-4.927-3.635l-41.098,6.2
					c0.866,1.49,1.73,2.98,2.592,4.472l-8.796-3.536l6.204-0.936c-1.272-2.189-2.549-4.376-3.84-6.553
					c-2.148-3.672-4.352-7.309-6.528-10.963c-2.173-3.656-4.405-7.274-6.607-10.912c-2.23-3.62-4.473-7.23-6.756-10.815
					c-0.018-0.028-0.064-0.1-0.083-0.128c-3.005-4.564-9.141-5.827-13.705-2.822c-4.564,3.005-5.827,9.141-2.822,13.705
					c2.338,3.55,4.714,7.074,7.105,10.59c2.419,3.497,4.806,7.014,7.254,10.493c2.444,3.481,4.861,6.979,7.332,10.442
					c2.196,3.115,4.421,6.21,6.652,9.301c4.914-0.824,10.17,0.291,14.105,3.146l40.974-13.285
					C206.482,295.566,207.767,293.568,207.446,291.442z"/>
			</g>
			<g>
				<path style="fill:#FF5754;" d="M151.926,419.638c-5.124,1.567-10.379,2.595-15.794,3.499c-0.012,0.002-0.025,0.005-0.037,0.007
					l7.86,34.77c0.607,2.701,3.13,4.607,5.965,4.365c3.095-0.264,5.391-2.988,5.126-6.083L151.926,419.638z"/>
			</g>
			<g>
				<path style="fill:#DA2727;" d="M71.1,289.508c-0.853,1.333-1.704,2.667-2.553,4.003l-0.589,0.926
					c-0.881,1.394-1.245,3.117-0.888,4.859l0.856,4.177C71.803,299.704,71.93,294.492,71.1,289.508z"/>
				<path style="fill:#FF5754;" d="M81.931,303.088c0.544-0.678,1.085-1.358,1.629-2.037l-0.152-3.748L81.931,303.088z"/>
				<path style="fill:#FF5754;" d="M108.39,251.835c-4.47-3.143-10.642-2.067-13.785,2.403c-2.258,3.211-4.478,6.449-6.684,9.697
					c-2.179,3.267-4.388,6.513-6.539,9.8c-2.154,3.285-4.336,6.55-6.463,9.855c-1.283,1.965-2.553,3.94-3.818,5.918
					c0.83,4.984,0.702,10.197-3.173,13.965l8.882,43.348c0.417,2.044,2.265,3.544,4.417,3.457c2.389-0.097,4.247-2.112,4.15-4.501
					l-1.816-44.724c-0.543,0.679-1.085,1.358-1.629,2.037l1.477-5.785l0.152,3.748c1.913-2.39,3.821-4.784,5.707-7.194
					c2.441-3.08,4.828-6.198,7.243-9.297c2.417-3.097,4.777-6.235,7.167-9.351c2.362-3.136,4.711-6.282,7.022-9.455
					c0.022-0.03,0.074-0.103,0.096-0.134C113.936,261.151,112.86,254.979,108.39,251.835z"/>
			</g>
			<path style="fill:#FF5754;" d="M132.761,250.649l-17.621-7.414l-16.254,7.284c-4.36,1.954-6.692,7.96-5.844,14.336l5.865,44.094
				l-4.388,16.502c-1.742,6.552,0.49,12.969,4.976,12.969h32.827c4.486,0,6.718-6.417,4.976-12.969l-4.39-16.508l5.844-43.921
				C139.61,258.574,137.207,252.519,132.761,250.649z"/>
			<path style="fill:#FF5754;" d="M76.241,341.951c0,0,0.961,11.904,0.899,14.724c-0.062,2.821,0.296,5.076,0.681,5.706
				c0.385,0.63,1.779-1.227,1.746-5.35c0,0,0.345,5.064,1.729,7.136c1.383,2.073,1.066-5.029,0.6-7.354c0,0,1.241,6.088,2.911,8.069
				c1.67,1.981,0.622-5.796-0.353-8.763c0,0,2.395,5.859,3.893,6.935c1.498,1.076-0.57-5.572-1.769-8.15
				c-1.2-2.577-0.526-3.607-0.011-3.332c0.515,0.274,2.365,1.587,3.226,2.38c0.538,0.495,2.471,1.053,2.223-0.018
				c-0.149-0.643-1.497-2.067-2.329-2.895c-2.218-2.207-5.547-6.373-6.249-8.609c-0.702-2.237-0.89-3.16-0.89-3.16L76.241,341.951z"
				/>
			<g>
				<g>
					<path style="fill:#1B141C;" d="M140.83,461.74c0.09,0.425,0.213,0.794,0.324,1.107c0.324,0.917,0.649,1.398,0.649,1.398
						l37.449-0.022c-0.034-0.47-0.09-0.928-0.19-1.376c-0.09-0.38-0.19-0.749-0.324-1.107c-0.817-2.259-2.528-4.116-4.799-5.101
						l-8.311-3.602l-0.436-0.179l-0.805-0.358l-0.425-0.179l-0.805-0.347l-0.436-0.19l-5.369-2.327
						c-6.588,5.772-15.067,0.716-15.067,0.716C140.003,455.476,140.249,459.402,140.83,461.74z"/>
				</g>
				<g>
					<path style="fill:#1B141C;" d="M159.117,450.892v-2.263c0-2.073-1.681-3.754-3.754-3.754l0,0c-2.073,0-3.754,1.681-3.754,3.754
						v5.459h4.145L159.117,450.892z"/>
				</g>
				<g>
					<path style="fill:#FFFFFF;" d="M140.83,461.74c0.09,0.425,0.213,0.794,0.324,1.107h37.907c-0.09-0.38-0.19-0.749-0.324-1.107
						H140.83z"/>
				</g>
				<g>
					<g>
						<polygon style="fill:#FFFFFF;" points="163.984,455.442 164.409,455.643 165.629,453.037 165.192,452.858 						"/>
					</g>
					<g>
						<polygon style="fill:#FFFFFF;" points="162.765,454.872 163.19,455.073 164.387,452.5 163.962,452.321 						"/>
					</g>
					<g>
						<polygon style="fill:#FFFFFF;" points="161.546,454.301 161.971,454.503 163.157,451.975 162.72,451.784 						"/>
					</g>
				</g>
				<g>
					<path style="fill:#FFFFFF;" d="M154.845,450.184c0-0.732,0.415-1.374,1.082-1.677c0.667-0.3,1.423-0.189,1.973,0.295
						l1.41,1.239c0.054,0.048,0.081,0.119,0.072,0.191c-0.134,1.021-1.012,1.791-2.042,1.791h-0.654
						C155.671,452.023,154.845,451.199,154.845,450.184z M157.614,449.128c-0.419-0.371-0.999-0.454-1.508-0.225
						c-0.51,0.23-0.827,0.722-0.827,1.281c0,0.776,0.631,1.407,1.406,1.407h0.654c0.776,0,1.442-0.554,1.594-1.304L157.614,449.128z
						"/>
				</g>
			</g>
			<g>
				<path style="fill:#FF5754;" d="M192.983,298.389l8.446-2.212c2.433,1.811,7.007,1.922,9.806,0.754
					c0.705,0.198,1.404,0.197,2.05-0.149c0.646-0.345,1.076-1.149,0.825-1.837c0.876-0.381,1.604-1.244,1.777-2.184
					c0.048-0.26,0.06-0.532-0.013-0.786c-0.073-0.254-0.239-0.489-0.477-0.604c0.493-0.532,0.833-1.254,0.68-1.962
					c-0.153-0.708-0.668-1.329-1.336-1.61c2.949,0.097,6.028,0.201,8.734-0.55c0.462-0.128,0.976-0.462,0.949-0.941
					c-0.016-0.293-0.256-0.535-0.527-0.645c-0.272-0.11-0.573-0.114-0.866-0.118c-4.198-0.06-8.392-0.405-12.544-1.031
					c-0.507-0.077-1.014-0.1-1.511,0.026c0.826-0.604,1.563-1.349,2.389-1.953c0.666-0.487,1.353-0.996,1.759-1.714
					c0.406-0.718,0.453-1.71-0.116-2.307c-2.641,1.245-5.363,2.785-7.868,4.286c-4.216,2.526-3.518,3.686-6.079,6.103l-5.728,1.594"
					/>
				
					<path style="fill:none;stroke:#DA2727;stroke-width:0.4165;stroke-linecap:round;stroke-linejoin:round;stroke-miterlimit:10;" d="
					M215.356,291.334c-1.085,0.028-2.168,0.111-3.253,0.1c-1.085-0.01-2.179-0.116-3.21-0.453c-0.366-0.119-0.737-0.279-0.982-0.576
					c-0.311-0.378-0.354-0.933-0.174-1.388c0.18-0.455,0.558-0.812,0.99-1.042c0.432-0.23,0.917-0.342,1.401-0.411
					c1.545-0.222,3.116-0.03,4.662,0.18"/>
				
					<path style="fill:none;stroke:#DA2727;stroke-width:0.4165;stroke-linecap:round;stroke-linejoin:round;stroke-miterlimit:10;" d="
					M214.1,294.961c-1.767-0.437-3.543-0.84-5.326-1.209c-0.444-0.092-0.908-0.191-1.256-0.48c-0.421-0.348-0.601-0.947-0.485-1.48
					c0.116-0.534,0.507-0.99,0.998-1.228"/>
				
					<path style="fill:none;stroke:#DA2727;stroke-width:0.4165;stroke-linecap:round;stroke-linejoin:round;stroke-miterlimit:10;" d="
					M211.203,296.925c-0.666-0.169-1.331-0.337-1.997-0.506c-0.505-0.128-1.018-0.259-1.469-0.522
					c-0.45-0.263-0.838-0.679-0.944-1.189c-0.106-0.51,0.136-1.106,0.62-1.299"/>
				
					<path style="fill:none;stroke:#DA2727;stroke-width:0.4165;stroke-linecap:round;stroke-linejoin:round;stroke-miterlimit:10;" d="
					M207.233,290.488c-0.766,0.533-1.538,1.07-2.394,1.44c-0.856,0.37-1.813,0.567-2.729,0.389"/>
			</g>
			<path style="fill:#556BC1;" d="M149.859,386.759c-5.593-3.983-8.573-11.242-5.817-17.874l-17.718-29.616h10.912
				c1.283-5.16,1.218-10.562-0.187-15.69l-4.002-14.956c-18.014,4.255-34.378,0-34.378,0l-4.629,15.504
				c-1.949,6.528-0.82,13.587,3.067,19.182l29.946,43.097l10.955,50.76l15.703-3.652L149.859,386.759z"/>
			<path style="fill:#324073;" d="M149.859,386.759l-0.569-6.901c-0.138-1.679-0.66-3.304-1.525-4.75l-3.723-6.223
				C141.286,375.516,144.266,382.776,149.859,386.759z"/>
			<path style="fill:#1B141C;" d="M131.297,212.341c-0.388,1.799-1.803,3.273-3.486,4.019s-3.6,0.831-5.42,0.554
				c-2.157-0.328-4.237-1.153-6.032-2.392c-1.07-0.738-2.061-1.633-3.277-2.096c-1.215-0.463-2.775-0.368-3.589,0.647
				c-0.561,0.7-0.645,1.663-1.036,2.471c-0.597,1.232-1.973,2.04-3.34,1.961c-0.888-0.051-1.916-0.4-2.573,0.2
				c-0.625,0.571-0.431,1.569-0.438,2.415c-0.014,1.625-1.056,3.196-2.547,3.841c-1.492,0.645-3.35,0.328-4.543-0.776
				c-0.085-3.185-0.176-6.401,0.52-9.51c0.696-3.109,1.991-6.125,4.058-8.551c2.144-2.516,5.051-4.313,8.158-5.439
				c4.834-1.752,10.379-1.883,15.019,0.331C127.41,202.231,132.381,207.315,131.297,212.341z"/>
			<path style="fill:#DA2727;" d="M97.738,300.161l0.339,2.551c0,0,19.619,3.202,35.602,0.435l0.436-2.539l-31.208-3.43
				L97.738,300.161z"/>
			<path style="fill:#C1AF55;" d="M137.25,253.505c-1.039-1.773-3.467-3.548-5.303-4.473c-1.836-0.925-3.776-1.575-5.754-2.133
				c-0.912,1.738-2.59,3.542-4.143,4.458c-1.553,0.917-3.334,1.405-5.128,1.589c-2.337,0.239-4.745-0.036-6.908-0.951
				c-2.163-0.915-4.07-2.49-5.239-4.527c-3.535,1.259-7.24,3.164-10.02,5.684c2.425,5.941,5.013,11.897,5.562,18.29
				c0.549,6.393-0.895,13.222-5.22,17.962c0.611,3.431,0.895,7.058,1.507,10.489c12.497,3.073,25.407,2.252,38.236,1.242
				c0.526-4.538,0.019-8.027,1.102-11.64c1.083-3.613,2.635-7.064,3.966-10.593c1.157-3.065,2.161-6.365,1.516-9.577
				c-0.499-2.486-1.94-4.669-2.842-7.039C137.552,259.584,136.815,256.364,137.25,253.505z"/>
			<g>
				<defs>
					<path id="SVGID_00000140725448648878183430000005215595619577218226_" d="M137.25,253.505
						c-1.039-1.773-3.467-3.548-5.303-4.473c-1.836-0.925-3.776-1.575-5.754-2.133c-0.912,1.738-2.59,3.542-4.143,4.458
						c-1.553,0.917-3.334,1.405-5.128,1.589c-2.337,0.239-4.745-0.036-6.908-0.951c-2.163-0.915-4.07-2.49-5.239-4.527
						c-3.535,1.259-7.24,3.164-10.02,5.684c2.425,5.941,5.013,11.897,5.562,18.29c0.549,6.393-0.895,13.222-5.22,17.962
						c0.611,3.431,0.895,7.058,1.507,10.489c12.497,3.073,25.407,2.252,38.236,1.242c0.526-4.538,0.019-8.027,1.102-11.64
						c1.083-3.613,2.635-7.064,3.966-10.593c1.157-3.065,2.161-6.365,1.516-9.577c-0.499-2.486-1.94-4.669-2.842-7.039
						C137.552,259.584,136.815,256.364,137.25,253.505z"/>
				</defs>
				<clipPath id="SVGID_00000000921932607773132760000017802964578979683976_">
					<use xlink:href="#SVGID_00000140725448648878183430000005215595619577218226_"  style="overflow:visible;"/>
				</clipPath>
				<g style="clip-path:url(#SVGID_00000000921932607773132760000017802964578979683976_);">
					<g>
						<path style="fill:#9E8F46;" d="M114.61,305.751c-0.382,0-0.775-0.016-1.179-0.048c-3.773-0.298-6.741-2.009-7.938-4.577
							c-1.193-2.56-0.5-5.383,0.17-8.112c0.647-2.635,1.257-5.125,0.33-7.401c-1.304-3.2-5.43-4.422-8.454-3.558
							c-2.975,0.848-5.603,3.36-7.208,6.891l-0.758-0.345c1.706-3.754,4.527-6.432,7.738-7.348c3.855-1.102,8.097,0.714,9.453,4.045
							c1.03,2.526,0.357,5.265-0.293,7.914c-0.665,2.709-1.292,5.268-0.224,7.562c1.069,2.292,3.778,3.825,7.248,4.099
							c2.324,0.181,4.249-0.192,5.722-1.114c1.737-1.087,2.736-3.058,2.431-4.793c-0.191-1.087-0.826-2.042-1.497-3.053
							c-0.792-1.192-1.61-2.426-1.654-3.912c-0.062-2.158,1.592-3.911,3.16-4.832c3.321-1.951,7.915-1.764,11.427,0.468
							c3.197,2.029,5.5,5.569,6.32,9.714l-0.817,0.161c-0.777-3.922-2.945-7.265-5.949-9.172c-3.257-2.068-7.5-2.249-10.56-0.452
							c-1.363,0.8-2.8,2.295-2.749,4.089c0.036,1.249,0.754,2.33,1.515,3.476c0.689,1.038,1.402,2.112,1.623,3.369
							c0.363,2.06-0.792,4.381-2.809,5.644C118.294,305.32,116.599,305.751,114.61,305.751z"/>
					</g>
					<g>
						<path style="fill:#9E8F46;" d="M104.197,269.196c-0.418,0-0.865-0.029-1.344-0.087c-5.794-0.698-11.083-4.831-13.161-10.284
							l0.778-0.297c1.972,5.172,6.988,9.092,12.483,9.754c1.496,0.181,2.612,0.061,3.519-0.373c1.097-0.527,1.798-1.599,1.705-2.607
							c-0.093-1.002-0.889-1.828-1.659-2.628l-0.307-0.321c-1.306-1.383-1.769-2.771-1.306-3.909
							c0.251-0.615,0.736-1.077,1.405-1.337c0.984-0.381,2.325-0.291,3.417,0.229c0.933,0.444,1.774,1.079,2.587,1.693
							c1.273,0.961,2.475,1.87,3.935,2.026c1.405,0.148,2.492-0.495,3.166-1.063c1.293-1.09,2.166-2.834,2.276-4.552
							c0.2-3.103-1.382-6.192-2.653-8.674l0.742-0.38c1.318,2.573,2.958,5.775,2.743,9.107c-0.124,1.936-1.109,3.904-2.571,5.135
							c-1.143,0.963-2.453,1.4-3.79,1.254c-1.69-0.181-3.042-1.202-4.349-2.189c-0.78-0.589-1.586-1.198-2.443-1.606
							c-0.882-0.42-1.99-0.502-2.758-0.204c-0.456,0.177-0.77,0.471-0.935,0.874c-0.45,1.104,0.521,2.368,1.14,3.023l0.302,0.315
							c0.83,0.861,1.769,1.836,1.889,3.129c0.125,1.347-0.769,2.76-2.174,3.435C106.08,269.02,105.224,269.196,104.197,269.196z"/>
					</g>
					<g>
						<path style="fill:#9E8F46;" d="M119.551,279.479c-0.574,0-1.149-0.047-1.72-0.143c-2.136-0.361-4.091-1.33-5.98-2.268
							c-1.083-0.537-2.203-1.092-3.334-1.52c-5.059-1.913-11.081-1.365-15.713,1.432l-0.431-0.713
							c4.845-2.925,11.144-3.499,16.438-1.498c1.171,0.442,2.308,1.007,3.41,1.553c1.92,0.953,3.734,1.852,5.748,2.193
							c4.453,0.754,9.237-1.772,11.125-5.877c1.042-2.265,1.241-4.868,1.433-7.385c0.207-2.704,0.42-5.5,1.659-7.971
							c2.125-4.233,7.217-6.662,11.842-5.658c4.627,1.006,8.247,5.333,8.422,10.065l-0.833,0.031
							c-0.16-4.364-3.499-8.354-7.766-9.281c-4.266-0.93-8.96,1.315-10.919,5.218c-1.166,2.324-1.364,4.916-1.574,7.661
							c-0.198,2.591-0.403,5.269-1.507,7.67C128.054,276.895,123.825,279.479,119.551,279.479z"/>
					</g>
					<g>
						<path style="fill:#9E8F46;" d="M140.746,279.882c-2.894-0.058-5.595-2.445-6.15-5.436c-0.52-2.792,0.766-5.884,3.2-7.692
							c2.223-1.652,5.312-2.235,8.26-1.561l-0.185,0.812c-2.714-0.621-5.548-0.092-7.579,1.418c-2.183,1.623-3.34,4.384-2.878,6.871
							c0.486,2.616,2.835,4.705,5.348,4.755L140.746,279.882z"/>
					</g>
					<g>
						<path style="fill:#9E8F46;" d="M118.465,273.54c-0.921-0.542-1.56-1.518-1.754-2.678c-0.194-1.16,0.093-2.29,0.789-3.102
							c0.686-0.801,1.738-1.258,2.896-1.258c0.015,0,0.031,0,0.047,0c1.175,0.013,2.239,0.494,2.916,1.321l-0.644,0.528
							c-0.521-0.636-1.352-1.006-2.281-1.016c-0.918,0.016-1.767,0.342-2.301,0.966c-0.534,0.624-0.753,1.507-0.6,2.423
							c0.153,0.916,0.647,1.68,1.355,2.097L118.465,273.54z"/>
					</g>
					<g>
						<path style="fill:#9E8F46;" d="M100.613,254.045c-0.995,0-1.987-0.303-2.803-0.886c-1.274-0.908-2.043-2.445-2.007-4.009
							l0.833,0.019c-0.029,1.273,0.621,2.573,1.657,3.312c1.036,0.74,2.476,0.933,3.672,0.493l0.288,0.782
							C101.726,253.951,101.169,254.045,100.613,254.045z"/>
					</g>
					<g>
						<path style="fill:#9E8F46;" d="M128.409,304.702c-1.79-1.205-2.614-3.653-1.916-5.696c0.698-2.042,2.836-3.475,5.001-3.332
							l-0.055,0.831c-1.804-0.122-3.577,1.073-4.158,2.77c-0.58,1.698,0.105,3.734,1.594,4.735L128.409,304.702z"/>
					</g>
				</g>
			</g>
			<polygon style="fill:#324073;" points="136.119,435.848 154.845,431.069 155.279,434.868 136.976,438.482 			"/>
			<path style="fill:none;stroke:#324073;stroke-width:0.8329;stroke-miterlimit:10;" d="M140.433,435.933
				c-0.422-1.078-10.342-50.824-10.342-50.824l-31.107-44.463c-2.699-3.857-3.68-8.659-2.71-13.266l1.464-6.956"/>
			<path style="fill:none;stroke:#324073;stroke-width:0.8329;stroke-miterlimit:10;" d="M96.571,319.703
				c2.219,0.656,4.664,0.518,6.794-0.385c2.131-0.902,3.931-2.562,5.003-4.613"/>
			<path style="fill:none;stroke:#324073;stroke-width:0.8329;stroke-miterlimit:10;" d="M135.791,319.792
				c-0.479-0.123-0.948-0.281-1.403-0.473c-2.13-0.902-3.931-2.562-5.003-4.613"/>
			<polyline style="fill:none;stroke:#324073;stroke-width:0.8329;stroke-miterlimit:10;" points="135.74,339.269 126.324,339.269 
				131.564,348.028 			"/>
			<path style="fill:none;stroke:#324073;stroke-width:0.8329;stroke-miterlimit:10;" d="M118.208,314.667
				c0.193,4.967,1.304,9.897,3.258,14.467"/>
			<path style="fill:none;stroke:#324073;stroke-width:0.8329;stroke-miterlimit:10;" d="M121.188,315.024
				c0.495,2.526,0.99,5.052,1.486,7.578c0.123,0.628,0.244,1.29,0.036,1.895c-0.396,1.152-1.76,1.597-2.944,1.886"/>
			<ellipse style="fill:#1B141C;" cx="128.13" cy="222.918" rx="1.109" ry="1.598"/>
			<path style="fill:#1B141C;" d="M116.145,222.918c0,0.883,0.496,1.598,1.109,1.598c0.612,0,1.109-0.715,1.109-1.598
				c0-0.883-0.496-1.598-1.109-1.598C116.641,221.32,116.145,222.035,116.145,222.918z"/>
			
				<path style="fill:none;stroke:#1B141C;stroke-width:0.8329;stroke-linecap:round;stroke-linejoin:round;stroke-miterlimit:10;" d="
				M122.515,221.547c-0.222,1.281,0.006,2.633,0.619,3.779c0.338,0.631,0.8,1.236,0.857,1.95c0.069,0.857-0.555,1.718-1.392,1.918"
				/>
			<path style="fill:#1B141C;" d="M127.095,217.582c-0.33,0.005-0.674,0.035-0.96,0.2c-0.286,0.165-0.497,0.502-0.421,0.824
				c0.058,0.244,0.269,0.43,0.501,0.525c0.233,0.095,0.488,0.113,0.739,0.131c1.187,0.083,2.374,0.166,3.562,0.249
				c0.337,0.024,1.329,0.153,1.336-0.374c0.006-0.48-0.828-0.722-1.158-0.853C129.552,217.83,128.327,217.562,127.095,217.582z"/>
			<path style="fill:#1B141C;" d="M116.967,217.678c0.33,0.005,0.674,0.035,0.96,0.2c0.286,0.166,0.497,0.502,0.421,0.824
				c-0.058,0.245-0.269,0.43-0.501,0.525c-0.233,0.095-0.489,0.113-0.739,0.131c-1.187,0.083-2.375,0.166-3.562,0.249
				c-0.337,0.024-1.329,0.153-1.336-0.374c-0.006-0.48,0.828-0.722,1.158-0.853C114.509,217.926,115.734,217.659,116.967,217.678z"
				/>
			
				<path style="fill:none;stroke:#1B141C;stroke-width:0.8329;stroke-linecap:round;stroke-linejoin:round;stroke-miterlimit:10;" d="
				M119.313,231.755c1.308,1.487,3.402,2.238,5.357,1.923"/>
			<polygon style="fill:#DA2727;" points="79.856,425.393 91.788,433.963 89.837,436.372 77.532,429.293 			"/>
			<polygon style="fill:#DA2727;" points="139.451,437.993 153.26,435.266 153.469,437.722 140.433,442.337 			"/>
		</g>
		<g>
			<g>
				<path style="fill:#C15538;" d="M585.907,380.407c-0.389,3.574-0.783,7.148-1.243,10.707l-0.208,1.604
					c-0.004,0.035-0.006,0.07-0.005,0.106l0.183,6.483C590.814,394.163,588.941,386.829,585.907,380.407z"/>
				<path style="fill:#D06C54;" d="M586.757,372.998c-0.122,0.955-0.245,1.91-0.353,2.868c-0.167,1.513-0.332,3.027-0.497,4.541
					c3.033,6.422,4.907,13.755-1.273,18.9l0.689,24.422l0.925,30.907c0.086,2.99,2.362,5.538,5.42,5.878
					c3.347,0.373,6.363-2.038,6.736-5.386l3.424-30.73l3.198-29.154c-0.013,0.044-0.026,0.087-0.039,0.131l0.212-1.71l-0.173,1.579
					c1.425-4.859,2.978-9.691,4.492-14.531c0.781-2.516,1.507-5.043,2.177-7.583C603.384,373.026,595.07,373.002,586.757,372.998z"
					/>
				<path style="fill:#D06C54;" d="M604.987,395.375c0.013-0.044,0.026-0.087,0.039-0.131l0.173-1.579L604.987,395.375z"/>
			</g>
			<g>
				<path style="fill:#C15538;" d="M620.318,380.719c0.181,3.479,0.364,6.957,0.484,10.432l0.022,1.467l0.959,6.002
					C626.443,393.192,623.977,386.434,620.318,380.719z"/>
				<path style="fill:#D06C54;" d="M643.751,378.439c0.228-1.438,0.428-2.878,0.615-4.318c-8.115-0.429-16.236-0.694-24.36-0.857
					c0.028,1.288,0.068,2.576,0.127,3.865c0.059,1.197,0.122,2.393,0.185,3.59c3.659,5.714,6.125,12.473,1.466,17.901l3.924,24.551
					l2.488,15.272l2.547,15.267c0.456,2.75,2.854,4.839,5.73,4.82c3.186-0.022,5.751-2.622,5.73-5.808l-0.105-15.477l-0.164-15.473
					l-0.42-30.937l0.022,1.467C642.213,387.677,643.004,383.059,643.751,378.439z"/>
			</g>
			<g>
				<path style="fill:#1B141C;" d="M599.841,452.18c-0.008,0.704-0.042,1.451-0.085,2.214c-0.026,0.467-0.059,0.933-0.093,1.408
					c-0.051,0.67-0.11,1.349-0.17,2.002c-0.127,1.442-0.272,2.791-0.399,3.886c-0.17,1.544-0.297,2.571-0.297,2.571l-33.675-0.025
					c0,0-0.959-1.094-0.008-2.545c1.383-2.147,3.962-5.091,8.255-6.525c4.709-1.578,7.551-3.657,9.46-5.736
					c0.059-0.068,0.119-0.127,0.17-0.195c0.577-0.628,1.052-1.273,1.485-1.892c0.051-0.068,0.093-0.144,0.136-0.212
					c0.221-0.331,0.416-0.653,0.611-0.967c1.833-3.012,6.295,5.193,6.295,5.193s5.998-4.242,7.678-3.631
					C599.748,447.93,599.892,449.779,599.841,452.18z"/>
				<path style="fill:#D5D5D1;" d="M599.097,461.69c0.103,1.534,0.091,2.573,0.091,2.573l-34.073-0.029c0,0-0.953-1.095,0.001-2.545
					H599.097z"/>
				<path style="fill:#D5D5D1;" d="M587.123,449.728l-1.018,1.307c-0.17,0.221-0.492,0.254-0.704,0.085l-2.401-1.884
					c0.577-0.628,1.052-1.273,1.485-1.892c0.051-0.068,0.093-0.144,0.136-0.212l2.418,1.892
					C587.258,449.194,587.301,449.516,587.123,449.728z"/>
				<g>
					<path style="fill:#D5D5D1;" d="M599.756,454.395c-0.026,0.467-0.059,0.933-0.093,1.408c-1.273,0.789-2.698,1.366-4.2,1.68
						c-1.018,0.221-2.087,0.314-3.139,0.272c-1.044-0.034-2.028-0.153-2.953-0.195c-0.925-0.034-1.756,0.025-2.511,0.263
						c-0.764,0.229-1.485,0.645-2.113,1.154c-1.264,1.027-2.129,2.52-2.435,4.03l-3.351-0.882c0.721-2.265,2.189-4.208,4.115-5.464
						c0.959-0.628,2.036-1.103,3.182-1.323c1.154-0.238,2.308-0.178,3.326-0.026c1.035,0.153,1.985,0.373,2.893,0.492
						c0.899,0.127,1.807,0.144,2.724,0.042C596.778,455.685,598.339,455.184,599.756,454.395z"/>
				</g>
			</g>
			<g>
				<path style="fill:#1B141C;" d="M643.874,452.18c-0.009,0.704-0.042,1.451-0.085,2.214c-0.026,0.467-0.059,0.933-0.093,1.408
					c-0.051,0.67-0.11,1.349-0.17,2.002c-0.127,1.442-0.271,2.791-0.399,3.886c-0.17,1.544-0.297,2.571-0.297,2.571l-33.675-0.025
					c0,0-0.959-1.094-0.008-2.545c1.383-2.147,3.962-5.091,8.255-6.525c4.709-1.578,7.551-3.657,9.46-5.736
					c0.059-0.068,0.119-0.127,0.17-0.195c0.577-0.628,1.052-1.273,1.485-1.892c0.051-0.068,0.093-0.144,0.136-0.212
					c0.221-0.331,0.416-0.653,0.611-0.967c1.833-3.012,6.295,5.193,6.295,5.193s5.999-4.242,7.679-3.631
					C643.781,447.93,643.925,449.779,643.874,452.18z"/>
				<path style="fill:#D5D5D1;" d="M643.13,461.69c0.103,1.534,0.091,2.573,0.091,2.573l-34.073-0.029c0,0-0.953-1.095,0.001-2.545
					H643.13z"/>
				<path style="fill:#D5D5D1;" d="M631.156,449.728l-1.018,1.307c-0.17,0.221-0.492,0.254-0.704,0.085l-2.401-1.884
					c0.577-0.628,1.052-1.273,1.485-1.892c0.051-0.068,0.093-0.144,0.136-0.212l2.418,1.892
					C631.292,449.194,631.334,449.516,631.156,449.728z"/>
				<g>
					<path style="fill:#D5D5D1;" d="M643.789,454.395c-0.026,0.467-0.059,0.933-0.093,1.408c-1.273,0.789-2.698,1.366-4.2,1.68
						c-1.018,0.221-2.087,0.314-3.139,0.272c-1.044-0.034-2.028-0.153-2.953-0.195c-0.925-0.034-1.756,0.025-2.511,0.263
						c-0.764,0.229-1.485,0.645-2.113,1.154c-1.264,1.027-2.13,2.52-2.435,4.03l-3.351-0.882c0.721-2.265,2.189-4.208,4.115-5.464
						c0.959-0.628,2.036-1.103,3.182-1.323c1.154-0.238,2.308-0.178,3.326-0.026c1.035,0.153,1.985,0.373,2.893,0.492
						c0.899,0.127,1.807,0.144,2.724,0.042C640.811,455.685,642.372,455.184,643.789,454.395z"/>
				</g>
			</g>
			<path style="fill:#B44E28;" d="M642.246,309.524l-43.989,0.497l-2.369,22.945c0,0-10.162,27.035-12.502,54.788l24.724,2.033
				c0,0,6.751-24.682,8.665-35.316l3.292-1.063c0,0-1.59,20.31-0.952,35.835l24.563-0.213c0,0,6.38-32.964,2.658-54.762
				L642.246,309.524z"/>
			<polygon style="fill:#6B2E17;" points="582.433,385.1 609.513,387.766 608.741,392.186 582.433,389.239 			"/>
			<polygon style="fill:#6B2E17;" points="617.72,387.042 645.151,386.293 644.73,391.063 618.002,390.572 			"/>
			
				<line style="fill:none;stroke:#6B2E17;stroke-width:0.8329;stroke-miterlimit:10;" x1="604.826" y1="388.678" x2="612.19" y2="362.583"/>
			
				<line style="fill:none;stroke:#6B2E17;stroke-width:0.8329;stroke-miterlimit:10;" x1="641.643" y1="388.643" x2="644.247" y2="360.411"/>
			<path style="fill:#1B141C;" d="M631.003,221.805c1.119,0.806,2.548,1.169,3.916,0.998c1.368-0.172,2.663-0.877,3.549-1.934
				c1.676-2,1.732-4.868,1.535-7.47c-0.144-1.895-0.382-3.798-0.988-5.598s-1.306-3.482-2.771-4.692
				c1.704-1.648,1.71-4.549,0.448-6.555c-1.262-2.006-3.512-3.21-5.808-3.799c-2.296-0.589-4.688-0.647-7.047-0.88
				c-2.359-0.233-4.766-0.667-6.785-1.909c-1.075-0.661-2.105-1.57-3.366-1.625c-2.687-0.116-4.328,3.613-7.017,3.562
				c-1.688-0.032-3.038-1.59-4.723-1.692c-1.263-0.077-2.465,0.723-3.148,1.788c-0.683,1.066-0.921,2.357-0.993,3.621
				c-0.16,2.778,0.452,5.657,2.064,7.925c1.612,2.268,4.297,3.839,7.078,3.766c3.614-0.095,6.163,3.044,9.427,4.597
				c4.045,1.925,8.102,3.857,11.883,6.26c0.683,0.434,1.366,0.891,1.899,1.5C630.689,220.277,631.041,220.996,631.003,221.805z"/>
			<rect x="612.237" y="227.872" style="fill:#D06C54;" width="15.661" height="21.115"/>
			<path style="fill:#C15538;" d="M612.237,227.872v6.531c3.567,0.148,11.748-0.227,15.078-6.502l-2.292-0.03H612.237z"/>
			<g>
				<path style="fill:#D06C54;" d="M544.616,307.795c-0.043-1.084-0.089-2.168-0.134-3.253l-17.653,7.536
					c-2.038,0.868-3.268,3.175-2.818,5.533c0.508,2.658,2.958,4.376,5.472,3.836l15.786-3.392
					C544.722,314.683,544.751,311.201,544.616,307.795z"/>
			</g>
			<path style="fill:#D06C54;" d="M598.631,311.478h42.873l1.708-58.187c0.154-5.237-2.703-9.896-7.012-11.358l-15.426-5.234
				l-16.686,5.33c-4.385,1.401-7.315,6.101-7.159,11.403L598.631,311.478z"/>
			<path style="fill:#D06C54;" d="M604.335,212.909c0-10.347,6.92-18.735,15.457-18.735c8.537,0,15.457,8.388,15.457,18.735
				c0,3.235-0.684,6.48-2.089,9.4c-1.263,2.626-3.116,4.995-5.492,6.702c-1.476,1.06-3.207,1.873-4.987,2.252
				c-1.183,0.251-2.46,0.197-3.664,0.214c-1.322,0.018-2.644,0.001-3.965-0.051c-1.536-0.061-3.16-0.137-4.627-0.639
				c-1.299-0.444-2.493-1.232-3.426-2.237c-1.607-1.728-2.491-4.045-2.491-6.401v-6.583
				C604.406,214.696,604.335,213.814,604.335,212.909z"/>
			<g>
				<path style="fill:#D06C54;" d="M631.809,212.779c0.555-0.987,1.894-1.554,3.159-1.461c1.265,0.093,2.416,0.781,3.11,1.699
					c0.694,0.919,0.962,2.044,0.92,3.141c-0.043,1.132-0.417,2.275-1.217,3.172c-0.8,0.897-2.055,1.518-3.366,1.514
					c-1.31-0.004-2.626-0.7-3.082-1.761L631.809,212.779z"/>
				<g>
					
						<path style="fill:none;stroke:#C15538;stroke-width:0.6772;stroke-linecap:round;stroke-linejoin:round;stroke-miterlimit:10;" d="
						M634.803,218.867c-1.002-1.863-0.856-4.099,0.381-5.868"/>
					
						<path style="fill:none;stroke:#C15538;stroke-width:0.6772;stroke-linecap:round;stroke-linejoin:round;stroke-miterlimit:10;" d="
						M634.433,215.553c1.053,0.464,1.87,1.263,2.233,2.184"/>
				</g>
			</g>
			<path style="fill:#D06C54;" d="M721.316,250.586c0,0,5.181-3.089,6.634-5.669c1.453-2.58-5.903,1.574-8.117,3.317
				c0,0,5.786-4.588,6.987-7.423c1.201-2.836-6.477,2.457-9.098,5.085c0,0,4.922-5.689,5.258-7.855
				c0.336-2.166-5.6,3.599-7.687,6.256c-2.087,2.657-3.54,2.496-3.526,1.803c0.014-0.693,0.411-3.36,0.788-4.698
				c0.236-0.837-0.213-3.185-1.214-2.346c-0.601,0.503-1.386,2.697-1.816,4.024c-0.783,2.414-2.254,5.865-3.743,8.433l-8.697,5.924
				c2.494,3.068,4.916,6.187,7.325,9.318l8.455-8.018c3.566-2.139,7.766-4.614,9.379-5.388c3.023-1.451,5.221-3.042,5.681-3.789
				C728.386,248.814,725.668,248.335,721.316,250.586z"/>
			<path style="fill:#D06C54;" d="M535.396,318.257c0,0-12.177,7.292-14.862,9.3c-2.685,2.008-5.113,3.219-5.989,3.282
				c-0.875,0.063-0.042-2.568,3.969-5.384c0,0-5.136,3.163-8.096,3.257c-2.96,0.094,4.128-4.504,6.698-5.659
				c0,0-6.745,3.005-9.814,2.757c-3.07-0.248,5.176-4.604,8.719-5.711c0,0-7.321,1.73-9.396,1.024
				c-2.075-0.706,5.783-3.298,9.104-3.917c3.321-0.62,3.852-1.982,3.231-2.291c-0.621-0.309-3.168-1.191-4.529-1.476
				c-0.851-0.178-2.725-1.663-1.518-2.163c0.724-0.3,3.033,0.02,4.408,0.253c3.667,0.621,9.995,0.964,12.642,0.098
				c2.648-0.866,3.671-1.322,3.671-1.322L535.396,318.257z"/>
			<path style="fill:#676DB9;" d="M609.234,239.713"/>
			<path style="fill:#1B141C;" d="M602.035,205.443c2.377,2.003,5.334,2.335,8.15,2.214c2.168-0.093,4.292-0.612,6.428-0.997
				c2.136-0.385,4.342-0.636,6.467-0.193c2.125,0.443,4.177,1.677,5.145,3.62c0.838,1.682,0.79,3.686,1.553,5.403
				c0.765,1.719,2.362,3.044,4.194,3.478c1.831,0.433,3.853-0.036,5.307-1.23c0.24-3.699,0.221-6.393-1.461-10.076
				c-1.682-3.683-5.773-9.578-9.238-11.673c-2.84-1.717-6.582-2.754-9.895-2.938c-3.472-0.192-7.418,1.314-10.413,3.079
				C604.896,198.12,602.134,201.525,602.035,205.443z"/>
			<path style="fill:#5E4055;" d="M659.499,295.192l0.881,0.804c4.691,4.281,11.919,4.115,16.41-0.375l0.628-0.629
				C672.093,292.949,665.445,293.757,659.499,295.192z"/>
			<path style="fill:#5E4055;" d="M575.458,313.032l4.653-0.984c1.734-0.367,3.266-1.373,4.29-2.819l2.2-3.105
				C582.284,305.407,578.219,309.233,575.458,313.032z"/>
			<path style="fill:#382632;" d="M700,254.29l-29.328,19.798l-25.112-26.833c-2.999-3.205-6.769-5.588-10.95-6.923l-3.69-1.178
				c-2.608,3.159-6.62,5.114-10.715,5.219c-4.095,0.106-8.203-1.64-10.97-4.661l-5.33,1.94c-4.232,1.541-7.797,4.507-10.081,8.389
				l-25.084,42.636l-30.043,12.876l3.338,14.545l33.423-7.067c2.76-3.799,6.826-7.624,11.143-6.908l11.232-15.85l0.424,19.747
				l43.989-0.497l1.005-29.159l16.248,14.826c5.947-1.434,12.594-2.243,17.92-0.199l31.522-31.522L700,254.29z"/>
			<path style="fill:#5E4055;" d="M634.373,240.26c-3.523,3.956-8.721,6.38-14.018,6.514c-5.348,0.133-10.695-2.049-14.418-5.864
				l3.298-1.199c2.765,3.023,6.872,4.773,10.97,4.664c4.098-0.108,8.104-2.057,10.711-5.222L634.373,240.26z"/>
			<polygon style="fill:#5E4055;" points="697.452,255.339 706.997,265.799 709.507,263.283 699.452,253.584 			"/>
			<polygon style="fill:#5E4055;" points="539.963,303.969 544.209,320.573 540.727,321.29 537.398,304.678 			"/>
			<path style="fill:none;stroke:#9E8F46;stroke-width:0.8329;stroke-miterlimit:10;" d="M585.309,362.583
				c0,0,26.219,4.473,63.623,0.421"/>
			<polyline style="fill:none;stroke:#5E4055;stroke-width:0.8329;stroke-miterlimit:10;" points="701.222,255.546 670.16,277.346 
				644.247,249.39 			"/>
			<path style="fill:none;stroke:#5E4055;stroke-width:0.8329;stroke-miterlimit:10;" d="M542.19,318.006l37.534-8.32
				c1.027-0.228,1.931-0.832,2.535-1.693l17.901-25.524"/>
			<g>
				<path style="fill:#C1AF55;" d="M648.973,335.261c-4.193-18.727-7.33-37.633-9.556-56.695c-2.63-3.314-4.334-7.285-5.463-11.362
					c-1.129-4.077-1.869-8.351-2.445-12.542l2.482-14.527l-2.126-0.678l-2.832,15.541c-7.375,0.901-15.231,0.872-22.498-0.514
					l1.544-14.352l-2.142,0.779l-1.349,13.169l-7.666,38.177c0.081,5.921-2.898,39.843-2.898,39.843
					c-4.229,10.847-7.493,21.562-9.739,32.986l0.838,0.026c21.294,2.079,42.865,2.58,64.154,0.455
					C649.963,355.389,648.973,335.261,648.973,335.261z"/>
				<g>
					<path style="fill:#9E8F46;" d="M626.327,271.01h-17.634c-0.868,0-1.572-0.704-1.572-1.572v-3.875
						c0-0.868,0.704-1.572,1.572-1.572h17.634c0.868,0,1.572,0.704,1.572,1.572v3.875
						C627.898,270.306,627.195,271.01,626.327,271.01z"/>
					<path style="fill:#9E8F46;" d="M634.908,352.421h-33.501c-2.03,0-3.56-1.646-3.417-3.676l0.821-11.645
						c0.143-2.03,1.905-3.676,3.935-3.676h33.501c2.03,0,3.56,1.646,3.417,3.676l-0.821,11.645
						C638.7,350.775,636.938,352.421,634.908,352.421z"/>
					<path style="fill:#9E8F46;" d="M606.496,256.254c0,0.473-0.383,0.856-0.856,0.856s-0.856-0.383-0.856-0.856
						c0-0.473,0.383-0.856,0.856-0.856S606.496,255.782,606.496,256.254z"/>
					<path style="fill:#9E8F46;" d="M631.099,256.401c0,0.473-0.383,0.856-0.856,0.856s-0.856-0.383-0.856-0.856
						c0-0.473,0.383-0.856,0.856-0.856S631.099,255.929,631.099,256.401z"/>
				</g>
				<path style="fill:none;stroke:#9E8F46;stroke-width:0.8329;stroke-miterlimit:10;" d="M646.277,363.278l0.291-26.435
					c0,0-9.234-46.653-8.546-56.822c0,0-7.475-9.951-7.468-21.473"/>
			</g>
			<polygon style="fill:#C15538;" points="537.932,307.339 540.293,319.124 537.558,319.711 536.709,307.861 			"/>
			<path style="fill:#FFFFFF;" d="M607.758,223.403c0,2.16,1.751,3.911,3.911,3.911c2.16,0,3.911-1.751,3.911-3.911H607.758z"/>
			<path style="fill:#1B141C;" d="M609.231,210.134c0.203,0.017,0.421,0.049,0.564,0.194c0.196,0.2,0.162,0.547-0.004,0.773
				c-0.166,0.226-0.428,0.358-0.684,0.473c-0.909,0.407-1.868,0.701-2.849,0.871c-0.426,0.074-0.888,0.119-1.268-0.087
				c-0.339-0.184-0.595-0.719-0.357-1.076c0.214-0.321,0.855-0.504,1.192-0.638C606.901,210.218,608.076,210.039,609.231,210.134z"
				/>
			<path style="fill:#1B141C;" d="M615.571,210.134c-0.203,0.017-0.422,0.049-0.564,0.194c-0.197,0.2-0.162,0.547,0.004,0.773
				c0.166,0.226,0.428,0.358,0.684,0.473c0.909,0.407,1.868,0.701,2.849,0.871c0.426,0.074,0.888,0.119,1.268-0.087
				c0.339-0.184,0.595-0.719,0.357-1.076c-0.214-0.321-0.855-0.504-1.192-0.638C617.9,210.218,616.725,210.039,615.571,210.134z"/>
			
				<path style="fill:none;stroke:#1B141C;stroke-width:0.8329;stroke-linecap:round;stroke-linejoin:round;stroke-miterlimit:10;" d="
				M605.201,215.717c0.285-0.585,0.854-1.024,1.492-1.15c0.638-0.126,1.331,0.063,1.818,0.496"/>
			
				<path style="fill:none;stroke:#1B141C;stroke-width:0.8329;stroke-linecap:round;stroke-linejoin:round;stroke-miterlimit:10;" d="
				M618.504,215.717c-0.285-0.585-0.854-1.024-1.492-1.15c-0.638-0.126-1.331,0.063-1.817,0.496"/>
			
				<path style="fill:none;stroke:#1B141C;stroke-width:0.8329;stroke-linecap:round;stroke-linejoin:round;stroke-miterlimit:10;" d="
				M611.679,213.878c-0.83,1.947-1.661,3.897-2.34,5.902c-0.142,0.418-0.266,0.916-0.003,1.27c0.176,0.237,0.48,0.338,0.77,0.396
				c0.622,0.125,1.271,0.116,1.89-0.025"/>
			<polygon style="fill:#C15538;" points="700.668,254.934 708.796,262.596 710.979,260.526 701.788,254.234 			"/>
		</g>
	</g>
</g>
</svg>
